<svg width="64" height="64" viewBox="0 0 64 64" fill="none" xmlns="http://www.w3.org/2000/svg">
<rect x="0.5" y="0.5" width="63" height="63" rx="7.5" fill="#FCFCFD"/>
<rect x="0.5" y="0.5" width="63" height="63" rx="7.5" stroke="#EAECF0"/>
<g clip-path="url(#clip0_13126_13287)">
<path d="M27 48.6666H47" stroke="#53389E" stroke-width="2.5" stroke-linecap="round" stroke-linejoin="round"/>
<path d="M15.3333 48.6666H22" stroke="#7F56D9" stroke-width="2.5" stroke-linecap="round" stroke-linejoin="round"/>
<path d="M17 33.6667V42C17 42.9167 17.75 43.6667 18.6667 43.6667H21.3333C22.25 43.6667 23 42.9167 23 42V27.6333C23 26.7167 22.25 25.9667 21.3333 25.9667H18.6667C17.75 25.9667 17 26.7167 17 27.6333" stroke="#7F56D9" stroke-width="2.5" stroke-linecap="round" stroke-linejoin="round"/>
<path d="M33.3333 20.6499H30.6667C29.75 20.6499 29 21.3999 29 22.3166V41.9999C29 42.9166 29.75 43.6666 30.6667 43.6666H33.3333C34.25 43.6666 35 42.9166 35 41.9999V22.3166C35 21.3999 34.25 20.6499 33.3333 20.6499Z" stroke="#7F56D9" stroke-width="2.5" stroke-linecap="round" stroke-linejoin="round"/>
<path d="M47 17C47 16.0834 46.25 15.3334 45.3333 15.3334H42.6667C41.75 15.3334 41 16.0834 41 17V42C41 42.9167 41.75 43.6667 42.6667 43.6667H45.3333C46.25 43.6667 47 42.9167 47 42V23.8834" stroke="#53389E" stroke-width="2.5" stroke-linecap="round" stroke-linejoin="round"/>
</g>
<defs>
<clipPath id="clip0_13126_13287">
<rect width="40" height="40" fill="white" transform="translate(12 12)"/>
</clipPath>
</defs>
</svg>
