<svg width="64" height="64" viewBox="0 0 64 64" fill="none" xmlns="http://www.w3.org/2000/svg">
<rect x="0.5" y="0.5" width="63" height="63" rx="7.5" fill="#FCFCFD"/>
<rect x="0.5" y="0.5" width="63" height="63" rx="7.5" stroke="#EAECF0"/>
<g clip-path="url(#clip0_13126_13266)">
<path d="M40.3 28.6999L44.5 24.4999C45.8833 23.1166 45.8833 20.8832 44.5 19.4999C43.1167 18.1166 40.8833 18.1166 39.5 19.4999L17.8333 41.1666C16.45 42.5499 16.45 44.7832 17.8333 46.1666C19.2167 47.5499 21.45 47.5499 22.8333 46.1666L36.1667 32.8332" stroke="#7F56D9" stroke-width="2.5" stroke-linecap="round" stroke-linejoin="round"/>
<path d="M42.0167 26.9833L37.0167 21.9833" stroke="#7F56D9" stroke-width="2.5" stroke-linecap="round" stroke-linejoin="round"/>
<path d="M27.9333 17.8334L28.6667 20.3334L26.1667 19.6L23.6667 20.3334L24.4 17.8334L23.6667 15.3334L26.1667 16.0667" stroke="#53389E" stroke-width="1.66667" stroke-linecap="round" stroke-linejoin="round"/>
<path d="M19.5 26.0667L22 25.3334L21.2667 27.8334L22 30.3334L19.5 29.6L17 30.3334L17.7333 27.8334L17 25.3334L19.5 26.0667Z" stroke="#53389E" stroke-width="1.66667" stroke-linecap="round" stroke-linejoin="round"/>
<path d="M42.7333 36.1666L42 33.6666L44.5 34.4L47 33.6666L46.2667 36.1666L47 38.6666L44.5 37.9333" stroke="#53389E" stroke-width="1.66667" stroke-linecap="round" stroke-linejoin="round"/>
</g>
<defs>
<clipPath id="clip0_13126_13266">
<rect width="40" height="40" fill="white" transform="translate(12 12)"/>
</clipPath>
</defs>
</svg>
