<svg width="64" height="64" viewBox="0 0 64 64" fill="none" xmlns="http://www.w3.org/2000/svg">
<rect x="0.5" y="0.5" width="63" height="63" rx="7.5" fill="#FCFCFD"/>
<rect x="0.5" y="0.5" width="63" height="63" rx="7.5" stroke="#EAECF0"/>
<g clip-path="url(#clip0_13178_12310)">
<path d="M38.9835 15.3335H25.0168C18.9502 15.3335 15.3335 18.9502 15.3335 25.0168V38.9668C15.3335 45.0502 18.9502 48.6668 25.0168 48.6668H38.9668C45.0335 48.6668 48.6502 45.0502 48.6502 38.9835V25.0168C48.6668 18.9502 45.0502 15.3335 38.9835 15.3335ZM31.2168 34.5502L25.0168 40.7502H28.6668C29.3502 40.7502 29.9168 41.3168 29.9168 42.0002C29.9168 42.6835 29.3502 43.2502 28.6668 43.2502H22.0002C21.8335 43.2502 21.6668 43.2168 21.5168 43.1502C21.2168 43.0168 20.9668 42.7835 20.8335 42.4668C20.7835 42.3168 20.7502 42.1668 20.7502 42.0002V35.3335C20.7502 34.6502 21.3168 34.0835 22.0002 34.0835C22.6835 34.0835 23.2502 34.6502 23.2502 35.3335V38.9835L29.4502 32.7835C29.9335 32.3002 30.7335 32.3002 31.2168 32.7835C31.7002 33.2668 31.7002 34.0668 31.2168 34.5502ZM43.2502 28.6668C43.2502 29.3502 42.6835 29.9168 42.0002 29.9168C41.3168 29.9168 40.7502 29.3502 40.7502 28.6668V25.0168L34.5502 31.2168C34.3002 31.4668 33.9835 31.5835 33.6668 31.5835C33.3502 31.5835 33.0335 31.4668 32.7835 31.2168C32.3002 30.7335 32.3002 29.9335 32.7835 29.4502L38.9835 23.2502H35.3335C34.6502 23.2502 34.0835 22.6835 34.0835 22.0002C34.0835 21.3168 34.6502 20.7502 35.3335 20.7502H42.0002C42.1668 20.7502 42.3168 20.7835 42.4835 20.8502C42.7835 20.9835 43.0335 21.2168 43.1668 21.5335C43.2168 21.6835 43.2502 21.8335 43.2502 22.0002V28.6668Z" fill="#53389E"/>
</g>
<defs>
<clipPath id="clip0_13178_12310">
<rect width="40" height="40" fill="white" transform="translate(12 12)"/>
</clipPath>
</defs>
</svg>
