<svg width="64" height="64" viewBox="0 0 64 64" fill="none" xmlns="http://www.w3.org/2000/svg">
<rect x="0.5" y="0.5" width="63" height="63" rx="7.5" fill="#FCFCFD"/>
<rect x="0.5" y="0.5" width="63" height="63" rx="7.5" stroke="#EAECF0"/>
<g clip-path="url(#clip0_13178_12303)">
<path d="M45.0835 33.5664C45.0835 34.8997 46.1668 35.9997 47.5002 35.9997C48.1335 35.9997 48.6668 36.5164 48.6668 37.1497C48.6668 43.5497 46.7335 45.483 40.3335 45.483H31.5835V42.833C31.5835 42.183 31.0835 41.6497 30.4502 41.5997C30.4168 41.583 30.3668 41.583 30.3335 41.583C29.6502 41.583 29.0835 42.1497 29.0835 42.833V45.483H26.1502C23.0168 45.483 21.4002 43.133 19.9335 39.583L19.6502 38.883C19.4168 38.283 19.7002 37.5997 20.3002 37.3664C20.9168 37.133 21.4002 36.6497 21.6502 36.0164C21.9168 35.3997 21.9168 34.7164 21.6668 34.0997C21.1335 32.8164 19.6668 32.1997 18.3668 32.7164C18.0835 32.8497 17.7502 32.8497 17.4668 32.7164C17.1835 32.5997 16.9668 32.3664 16.8335 32.0664L16.5835 31.3997C14.1002 25.3664 15.1835 22.783 21.2168 20.283L25.3002 18.5997C25.9002 18.3497 26.5835 18.633 26.8168 19.233L30.4502 27.1497C29.7668 27.1497 29.0835 27.6997 29.0835 28.383V35.6164C29.0835 36.2997 29.6502 36.8664 30.3335 36.8664C30.3668 36.8664 30.4168 36.8664 30.4502 36.8497C31.0835 36.7997 31.5835 36.2664 31.5835 35.6164V28.383C31.5835 27.733 31.0835 27.1997 30.4502 27.1497V20.2164H40.3335C46.7335 20.2164 48.6668 22.1497 48.6668 28.5497V29.9664C48.6668 30.6164 48.1335 31.133 47.5002 31.133C46.1668 31.133 45.0835 32.2164 45.0835 33.5664Z" fill="#53389E"/>
</g>
<defs>
<clipPath id="clip0_13178_12303">
<rect width="40" height="40" fill="white" transform="translate(12 12)"/>
</clipPath>
</defs>
</svg>
