<svg width="64" height="64" viewBox="0 0 64 64" fill="none" xmlns="http://www.w3.org/2000/svg">
<rect x="0.5" y="0.5" width="63" height="63" rx="7.5" fill="#FCFCFD"/>
<rect x="0.5" y="0.5" width="63" height="63" rx="7.5" stroke="#EAECF0"/>
<g clip-path="url(#clip0_13157_6289)">
<path d="M47.4166 21.6166V26.9999C47.4166 30.5243 46.237 31.8316 43.0512 32.0112C42.5916 32.0371 42.2166 31.6602 42.2166 31.1999V29.2999C42.2166 24.0999 39.8999 21.7833 34.6999 21.7833H32.7999C32.3396 21.7833 31.9627 21.4082 31.9886 20.9487C32.1682 17.7628 33.4755 16.5833 36.9999 16.5833H42.3832C46.1999 16.5833 47.4166 17.7999 47.4166 21.6166Z" fill="#53389E"/>
<path d="M39.7168 29.3001V34.7001C39.7168 38.5001 38.5001 39.7168 34.7001 39.7168H29.3001C25.5001 39.7168 24.2834 38.5001 24.2834 34.7001V29.3001C24.2834 25.5001 25.5001 24.2834 29.3001 24.2834H34.7001C38.5001 24.2834 39.7168 25.5001 39.7168 29.3001Z" fill="#7F56D9"/>
<path d="M31.1999 42.2166C31.6602 42.2166 32.0371 42.5916 32.0112 43.0512C31.8316 46.237 30.5243 47.4166 26.9999 47.4166H21.6166C17.7999 47.4166 16.5833 46.1999 16.5833 42.3832V36.9999C16.5833 33.4755 17.7628 32.1682 20.9487 31.9886C21.4082 31.9627 21.7833 32.3396 21.7833 32.7999V34.6999C21.7833 39.8999 24.0999 42.2166 29.2999 42.2166H31.1999Z" fill="#53389E"/>
</g>
<defs>
<clipPath id="clip0_13157_6289">
<rect width="40" height="40" fill="white" transform="translate(12 12)"/>
</clipPath>
</defs>
</svg>
