<svg width="64" height="64" viewBox="0 0 64 64" fill="none" xmlns="http://www.w3.org/2000/svg">
<rect x="0.5" y="0.5" width="63" height="63" rx="7.5" fill="#FCFCFD"/>
<rect x="0.5" y="0.5" width="63" height="63" rx="7.5" stroke="#EAECF0"/>
<path d="M15.3333 22.7334C15.3333 16.8167 16.8167 15.3334 22.7333 15.3334H25.3333" stroke="#7F56D9" stroke-width="2.5" stroke-linecap="round" stroke-linejoin="round"/>
<path d="M48.6667 31.8167V33.3001C48.6667 39.2334 47.1833 40.7001 41.2667 40.7001H22.7333C16.8167 40.7001 15.3333 39.2167 15.3333 33.3001V29.9834" stroke="#7F56D9" stroke-width="2.5" stroke-linecap="round" stroke-linejoin="round"/>
<path d="M32 40.7V48.6666" stroke="#7F56D9" stroke-width="2.5" stroke-linecap="round" stroke-linejoin="round"/>
<path d="M15.3333 33.6666H48.6667" stroke="#7F56D9" stroke-width="2.5" stroke-linecap="round" stroke-linejoin="round"/>
<path d="M24.5 48.6666H39.5" stroke="#7F56D9" stroke-width="2.5" stroke-linecap="round" stroke-linejoin="round"/>
<path d="M41.7667 27.6166H33.8333C31.5333 27.6166 30.7667 26.0833 30.7667 24.55V18.6833C30.7667 16.85 32.2667 15.35 34.1 15.35H41.7667C43.4667 15.35 44.8333 16.7166 44.8333 18.4166V24.55C44.8333 26.25 43.4667 27.6166 41.7667 27.6166Z" stroke="#53389E" stroke-width="2.5" stroke-linecap="round" stroke-linejoin="round"/>
<path d="M46.85 25.1999L44.8333 23.7833V19.1833L46.85 17.7666C47.85 17.0833 48.6667 17.4999 48.6667 18.7166V24.2666C48.6667 25.4833 47.85 25.8999 46.85 25.1999Z" stroke="#53389E" stroke-width="2.5" stroke-linecap="round" stroke-linejoin="round"/>
</svg>
