<svg width="64" height="64" viewBox="0 0 64 64" fill="none" xmlns="http://www.w3.org/2000/svg">
<rect x="0.5" y="0.5" width="63" height="63" rx="7.5" fill="#FCFCFD"/>
<rect x="0.5" y="0.5" width="63" height="63" rx="7.5" stroke="#EAECF0"/>
<path d="M23.1166 35.3333H18.6666C16.8333 35.3333 15.3333 36.8333 15.3333 38.6666V46.9999C15.3333 47.9166 16.0833 48.6666 16.9999 48.6666H23.1166C24.0333 48.6666 24.7833 47.9166 24.7833 46.9999V36.9999C24.7833 36.0833 24.0333 35.3333 23.1166 35.3333Z" fill="#53389E"/>
<path d="M34.2164 28.6667H29.7664C27.9331 28.6667 26.4331 30.1667 26.4331 32.0001V47.0001C26.4331 47.9167 27.1831 48.6667 28.0998 48.6667H35.8831C36.7998 48.6667 37.5498 47.9167 37.5498 47.0001V32.0001C37.5498 30.1667 36.0664 28.6667 34.2164 28.6667Z" fill="#53389E"/>
<path d="M45.3335 40.3333H40.8835C39.9668 40.3333 39.2168 41.0833 39.2168 41.9999V46.9999C39.2168 47.9166 39.9668 48.6666 40.8835 48.6666H47.0001C47.9168 48.6666 48.6668 47.9166 48.6668 46.9999V43.6666C48.6668 41.8333 47.1668 40.3333 45.3335 40.3333Z" fill="#53389E"/>
<path d="M37.0165 20.0832C37.5332 19.5666 37.7332 18.9499 37.5665 18.4166C37.3998 17.8832 36.8832 17.4999 36.1498 17.3832L34.5498 17.1166C34.4832 17.1166 34.3332 16.9999 34.2998 16.9332L33.4165 15.1666C32.7498 13.8166 31.2332 13.8166 30.5665 15.1666L29.6832 16.9332C29.6665 16.9999 29.5165 17.1166 29.4498 17.1166L27.8498 17.3832C27.1165 17.4999 26.6165 17.8832 26.4332 18.4166C26.2665 18.9499 26.4665 19.5666 26.9832 20.0832L28.2165 21.3332C28.2832 21.3832 28.3332 21.5832 28.3165 21.6499L27.9665 23.1832C27.6998 24.3332 28.1332 24.8499 28.4165 25.0499C28.6998 25.2499 29.3165 25.5166 30.3332 24.9166L31.8332 24.0332C31.8998 23.9832 32.1165 23.9832 32.1832 24.0332L33.6665 24.9166C34.1332 25.1999 34.5165 25.2832 34.8165 25.2832C35.1665 25.2832 35.4165 25.1499 35.5665 25.0499C35.8498 24.8499 36.2832 24.3332 36.0165 23.1832L35.6665 21.6499C35.6498 21.5666 35.6998 21.3832 35.7665 21.3332L37.0165 20.0832Z" fill="#7F56D9"/>
</svg>
