<svg width="64" height="64" viewBox="0 0 64 64" fill="none" xmlns="http://www.w3.org/2000/svg">
<rect x="0.5" y="0.5" width="63" height="63" rx="7.5" fill="#FCFCFD"/>
<rect x="0.5" y="0.5" width="63" height="63" rx="7.5" stroke="#EAECF0"/>
<path d="M39.0666 27.8667L46.9166 35.7167C47.3833 36.1834 48.1999 35.9334 48.3333 35.2834C48.5499 34.2167 48.6666 33.1167 48.6666 32.0001C48.6666 28.1834 47.3666 24.6667 45.2166 21.8667C44.9166 21.4667 44.3166 21.4501 43.9666 21.8001L39.0666 26.7001C38.7499 27.0167 38.7499 27.5501 39.0666 27.8667Z" fill="#53389E"/>
<path d="M36.1333 29.6333L33.1833 32.5833C32.85 32.9166 32.85 33.4333 33.1833 33.7666L42.8834 43.4666C43.2167 43.7999 43.75 43.7999 44.0667 43.4666C45.1 42.3833 45.9833 41.1666 46.7 39.8499C46.8667 39.5332 46.8 39.1166 46.55 38.8666L37.3167 29.6333C36.9833 29.3166 36.45 29.3166 36.1333 29.6333Z" fill="#53389E"/>
<path d="M30.2334 35.5336L27.3 38.4669C26.9667 38.8002 26.9667 39.3169 27.3 39.6502L35.5 47.8669C35.7167 48.0836 36.0334 48.1669 36.3167 48.0836C37.8667 47.6669 39.3334 47.0336 40.6667 46.2002C41.1167 45.9169 41.1834 45.2836 40.8 44.9002L31.4167 35.5169C31.0834 35.2169 30.55 35.2169 30.2334 35.5336Z" fill="#53389E"/>
<path d="M42.1331 18.7831C38.8331 16.2331 34.5498 14.8998 29.9498 15.4498C22.4331 16.3498 16.3498 22.4498 15.4498 29.9498C14.8998 34.5498 16.2331 38.8164 18.7831 42.1331C19.0831 42.5331 19.6831 42.5498 20.0331 42.1998L42.1998 20.0331C42.5498 19.6831 42.5331 19.0831 42.1331 18.7831Z" fill="#7F56D9"/>
<path d="M24.3334 41.45L21.8001 43.9833C21.4501 44.3333 21.4667 44.9333 21.8667 45.2333C24.3834 47.1833 27.4667 48.4166 30.8501 48.65C31.5667 48.7 31.9167 47.85 31.4001 47.3333L25.5167 41.45C25.2001 41.1166 24.6667 41.1166 24.3334 41.45Z" fill="#53389E"/>
</svg>
