<svg width="64" height="64" viewBox="0 0 64 64" fill="none" xmlns="http://www.w3.org/2000/svg">
<rect x="0.5" y="0.5" width="63" height="63" rx="7.5" fill="#FCFCFD"/>
<rect x="0.5" y="0.5" width="63" height="63" rx="7.5" stroke="#EAECF0"/>
<g clip-path="url(#clip0_13157_6259)">
<path d="M45.9334 33.2168C45.3167 33.2168 44.8001 32.7501 44.7334 32.1335C44.3334 28.4668 42.3667 25.1668 39.3334 23.0668C38.7834 22.6835 38.6501 21.9335 39.0334 21.3835C39.4167 20.8335 40.1667 20.7001 40.7167 21.0835C44.3334 23.6001 46.6667 27.5335 47.1501 31.8835C47.2167 32.5501 46.7334 33.1501 46.0667 33.2168C46.0167 33.2168 45.9834 33.2168 45.9334 33.2168Z" fill="#7F56D9"/>
<path d="M18.2335 33.2998C18.2002 33.2998 18.1502 33.2998 18.1168 33.2998C17.4502 33.2332 16.9668 32.6332 17.0335 31.9665C17.4835 27.6165 19.7835 23.6832 23.3668 21.1498C23.9002 20.7665 24.6668 20.8998 25.0502 21.4332C25.4335 21.9832 25.3002 22.7332 24.7668 23.1165C21.7668 25.2498 19.8168 28.5498 19.4502 32.1998C19.3835 32.8332 18.8502 33.2998 18.2335 33.2998Z" fill="#7F56D9"/>
<path d="M38.6502 47.1669C36.6002 48.1502 34.4002 48.6502 32.1002 48.6502C29.7002 48.6502 27.4168 48.1169 25.2835 47.0336C24.6835 46.7502 24.4502 46.0169 24.7502 45.4169C25.0335 44.8169 25.7668 44.5836 26.3668 44.8669C27.4168 45.4002 28.5335 45.7669 29.6668 45.9836C31.2002 46.2836 32.7668 46.3002 34.3002 46.0336C35.4335 45.8336 36.5502 45.4836 37.5835 44.9836C38.2002 44.7002 38.9335 44.9336 39.2002 45.5502C39.5002 46.1502 39.2668 46.8836 38.6502 47.1669Z" fill="#7F56D9"/>
<path d="M32.0833 15.3501C29.5 15.3501 27.3833 17.4501 27.3833 20.0501C27.3833 22.6501 29.4833 24.7501 32.0833 24.7501C34.6833 24.7501 36.7833 22.6501 36.7833 20.0501C36.7833 17.4501 34.6833 15.3501 32.0833 15.3501Z" fill="#53389E"/>
<path d="M20.4166 35.1169C17.8332 35.1169 15.7166 37.2169 15.7166 39.8169C15.7166 42.4169 17.8166 44.5169 20.4166 44.5169C23.0166 44.5169 25.1166 42.4169 25.1166 39.8169C25.1166 37.2169 22.9999 35.1169 20.4166 35.1169Z" fill="#53389E"/>
<path d="M43.5831 35.1169C40.9997 35.1169 38.8831 37.2169 38.8831 39.8169C38.8831 42.4169 40.9831 44.5169 43.5831 44.5169C46.1831 44.5169 48.2831 42.4169 48.2831 39.8169C48.2831 37.2169 46.1831 35.1169 43.5831 35.1169Z" fill="#53389E"/>
</g>
<defs>
<clipPath id="clip0_13157_6259">
<rect width="40" height="40" fill="white" transform="translate(12 12)"/>
</clipPath>
</defs>
</svg>
