<svg width="64" height="64" viewBox="0 0 64 64" fill="none" xmlns="http://www.w3.org/2000/svg">
<rect x="0.5" y="0.5" width="63" height="63" rx="7.5" fill="#FCFCFD"/>
<rect x="0.5" y="0.5" width="63" height="63" rx="7.5" stroke="#EAECF0"/>
<path d="M43.6667 38.6667V22.8333C43.6667 21 42.1667 19.5 40.3334 19.5H31.1667" stroke="#53389E" stroke-width="2.5" stroke-linecap="round" stroke-linejoin="round"/>
<path d="M35.3333 15.3334L30.3333 19.5L35.3333 23.6667" stroke="#7F56D9" stroke-width="2.5" stroke-linecap="round" stroke-linejoin="round"/>
<path d="M43.6667 48.6666C46.4281 48.6666 48.6667 46.428 48.6667 43.6666C48.6667 40.9052 46.4281 38.6666 43.6667 38.6666C40.9053 38.6666 38.6667 40.9052 38.6667 43.6666C38.6667 46.428 40.9053 48.6666 43.6667 48.6666Z" stroke="#53389E" stroke-width="2.5" stroke-linecap="round" stroke-linejoin="round"/>
<path d="M20.3333 32V41.1667C20.3333 43 21.8333 44.5 23.6666 44.5H32.8333" stroke="#7F56D9" stroke-width="2.5" stroke-linecap="round" stroke-linejoin="round"/>
<path d="M28.6667 48.6667L33.6667 44.5L28.6667 40.3334" stroke="#7F56D9" stroke-width="2.5" stroke-linecap="round" stroke-linejoin="round"/>
<path d="M20.3333 25.3334C23.0947 25.3334 25.3333 23.0948 25.3333 20.3334C25.3333 17.572 23.0947 15.3334 20.3333 15.3334C17.5719 15.3334 15.3333 17.572 15.3333 20.3334C15.3333 23.0948 17.5719 25.3334 20.3333 25.3334Z" stroke="#7F56D9" stroke-width="2.5" stroke-linecap="round" stroke-linejoin="round"/>
</svg>
