<svg width="64" height="64" viewBox="0 0 64 64" fill="none" xmlns="http://www.w3.org/2000/svg">
<rect x="0.5" y="0.5" width="63" height="63" rx="7.5" fill="#FCFCFD"/>
<rect x="0.5" y="0.5" width="63" height="63" rx="7.5" stroke="#EAECF0"/>
<g clip-path="url(#clip0_13178_12390)">
<path d="M47.4999 24.6336H38.1999C37.5499 24.6336 37.0332 24.117 37.0332 23.467C37.0332 22.817 37.5499 22.3003 38.1999 22.3003H47.4999C48.1499 22.3003 48.6665 22.817 48.6665 23.467C48.6665 24.117 48.1499 24.6336 47.4999 24.6336Z" fill="#53389E"/>
<path d="M22.7002 24.6336H16.5002C15.8502 24.6336 15.3335 24.117 15.3335 23.467C15.3335 22.817 15.8502 22.3003 16.5002 22.3003H22.7002C23.3502 22.3003 23.8668 22.817 23.8668 23.467C23.8668 24.117 23.3335 24.6336 22.7002 24.6336Z" fill="#53389E"/>
<path d="M28.8997 30.0505C32.5356 30.0505 35.4831 27.103 35.4831 23.4671C35.4831 19.8312 32.5356 16.8838 28.8997 16.8838C25.2639 16.8838 22.3164 19.8312 22.3164 23.4671C22.3164 27.103 25.2639 30.0505 28.8997 30.0505Z" fill="#53389E"/>
<path d="M47.5 41.6834H41.3C40.65 41.6834 40.1333 41.1668 40.1333 40.5168C40.1333 39.8668 40.65 39.3501 41.3 39.3501H47.5C48.15 39.3501 48.6666 39.8668 48.6666 40.5168C48.6666 41.1668 48.15 41.6834 47.5 41.6834Z" fill="#53389E"/>
<path d="M25.8002 41.6834H16.5002C15.8502 41.6834 15.3335 41.1668 15.3335 40.5168C15.3335 39.8668 15.8502 39.3501 16.5002 39.3501H25.8002C26.4502 39.3501 26.9668 39.8668 26.9668 40.5168C26.9668 41.1668 26.4335 41.6834 25.8002 41.6834Z" fill="#53389E"/>
<path d="M35.1004 47.1164C38.7363 47.1164 41.6838 44.1689 41.6838 40.533C41.6838 36.8972 38.7363 33.9497 35.1004 33.9497C31.4645 33.9497 28.5171 36.8972 28.5171 40.533C28.5171 44.1689 31.4645 47.1164 35.1004 47.1164Z" fill="#53389E"/>
</g>
<defs>
<clipPath id="clip0_13178_12390">
<rect width="40" height="40" fill="white" transform="translate(12 12)"/>
</clipPath>
</defs>
</svg>
