<svg width="64" height="64" viewBox="0 0 64 64" fill="none" xmlns="http://www.w3.org/2000/svg">
<rect x="0.5" y="0.5" width="63" height="63" rx="7.5" fill="#FCFCFD"/>
<rect x="0.5" y="0.5" width="63" height="63" rx="7.5" stroke="#EAECF0"/>
<path d="M17 39.5C16.3167 39.5 15.75 38.9333 15.75 38.25V25.75C15.75 25.0667 16.3167 24.5 17 24.5C17.6833 24.5 18.25 25.0667 18.25 25.75V38.25C18.25 38.9333 17.6833 39.5 17 39.5Z" fill="#53389E"/>
<path d="M24.5 43.6666C23.8167 43.6666 23.25 43.0999 23.25 42.4166V21.5833C23.25 20.8999 23.8167 20.3333 24.5 20.3333C25.1833 20.3333 25.75 20.8999 25.75 21.5833V42.4166C25.75 43.0999 25.1833 43.6666 24.5 43.6666Z" fill="#7F56D9"/>
<path d="M32 47.8334C31.3167 47.8334 30.75 47.2667 30.75 46.5834V17.4167C30.75 16.7334 31.3167 16.1667 32 16.1667C32.6833 16.1667 33.25 16.7334 33.25 17.4167V46.5834C33.25 47.2667 32.6833 47.8334 32 47.8334Z" fill="#53389E"/>
<path d="M39.5 43.6666C38.8167 43.6666 38.25 43.0999 38.25 42.4166V21.5833C38.25 20.8999 38.8167 20.3333 39.5 20.3333C40.1833 20.3333 40.75 20.8999 40.75 21.5833V42.4166C40.75 43.0999 40.1833 43.6666 39.5 43.6666Z" fill="#7F56D9"/>
<path d="M47 39.5C46.3167 39.5 45.75 38.9333 45.75 38.25V25.75C45.75 25.0667 46.3167 24.5 47 24.5C47.6833 24.5 48.25 25.0667 48.25 25.75V38.25C48.25 38.9333 47.6833 39.5 47 39.5Z" fill="#53389E"/>
</svg>
