<svg width="40" height="40" viewBox="0 0 40 40" fill="none" xmlns="http://www.w3.org/2000/svg">
<path d="M13.9668 20.0001L17.9835 24.0335L26.0335 15.9668" stroke="#18181A" stroke-width="2.5" stroke-linecap="round" stroke-linejoin="round"/>
<path d="M7.0668 10.3335C7.0668 8.56684 8.5168 7.11684 10.2835 7.11684H13.1668C13.8335 7.11684 14.7668 6.76684 15.2668 6.35017L17.9001 4.10017C19.0668 3.11684 20.9501 3.11684 22.0835 4.10017L24.7168 6.35017C25.2168 6.76684 26.1668 7.11684 26.8335 7.11684H29.6668C31.4335 7.11684 32.8835 8.56684 32.8835 10.3335V13.1668C32.8835 13.8335 33.2335 14.7668 33.6501 15.2668L35.9001 17.9002C36.8835 19.0668 36.8835 20.9502 35.9001 22.0835L33.6501 24.7168C33.2335 25.2168 32.8835 26.1502 32.8835 26.8168V29.6502C32.8835 31.4168 31.4335 32.8668 29.6668 32.8668H26.8335C26.1668 32.8668 25.2335 33.2168 24.7335 33.6335L22.1001 35.8835C20.9335 36.8668 19.0501 36.8668 17.9168 35.8835L15.2835 33.6335C14.7835 33.2168 13.8335 32.8668 13.1835 32.8668H10.2835C8.5168 32.8668 7.0668 31.4168 7.0668 29.6502V26.8002C7.0668 26.1502 6.73346 25.2002 6.3168 24.7168L4.0668 22.0668C3.10013 20.9168 3.10013 19.0502 4.0668 17.9002L5.00013 16.8002" stroke="#18181A" stroke-width="2.5" stroke-linecap="round" stroke-linejoin="round"/>
</svg>
