<svg width="64" height="64" viewBox="0 0 64 64" fill="none" xmlns="http://www.w3.org/2000/svg">
<rect x="0.5" y="0.5" width="63" height="63" rx="7.5" fill="#FCFCFD"/>
<rect x="0.5" y="0.5" width="63" height="63" rx="7.5" stroke="#EAECF0"/>
<path d="M30.75 42.4165H27C25.1667 42.4165 23.6667 43.9165 23.6667 45.7499V46.1665H22C21.3167 46.1665 20.75 46.7332 20.75 47.4165C20.75 48.0999 21.3167 48.6665 22 48.6665H42C42.6833 48.6665 43.25 48.0999 43.25 47.4165C43.25 46.7332 42.6833 46.1665 42 46.1665H40.3333V45.7499C40.3333 43.9165 38.8333 42.4165 37 42.4165H33.25V38.5999C32.8333 38.6499 32.4167 38.6665 32 38.6665C31.5833 38.6665 31.1667 38.6499 30.75 38.5999V42.4165Z" fill="#7F56D9"/>
<path d="M42.8 31.3999C43.9 30.9833 44.8667 30.2999 45.6334 29.5333C47.1834 27.8166 48.2 25.7666 48.2 23.3666C48.2 20.9666 46.3167 19.0833 43.9167 19.0833H42.9834C41.9 16.8666 39.6334 15.3333 37 15.3333H27C24.3667 15.3333 22.1 16.8666 21.0167 19.0833H20.0834C17.6834 19.0833 15.8 20.9666 15.8 23.3666C15.8 25.7666 16.8167 27.8166 18.3667 29.5333C19.1334 30.2999 20.1 30.9833 21.2 31.3999C22.9334 35.6666 27.1 38.6666 32 38.6666C36.9 38.6666 41.0667 35.6666 42.8 31.3999ZM36.7334 26.0833L35.7 27.3499C35.5334 27.5333 35.4167 27.8999 35.4334 28.1499L35.5334 29.7833C35.6 30.7833 34.8834 31.2999 33.95 30.9333L32.4334 30.3333C32.2 30.2499 31.8 30.2499 31.5667 30.3333L30.05 30.9333C29.1167 31.2999 28.4 30.7833 28.4667 29.7833L28.5667 28.1499C28.5834 27.8999 28.4667 27.5333 28.3 27.3499L27.2667 26.0833C26.6167 25.3166 26.9001 24.4666 27.8667 24.2166L29.45 23.8166C29.7 23.7499 30 23.5166 30.1334 23.2999L31.0167 21.9333C31.5667 21.0833 32.4334 21.0833 32.9834 21.9333L33.8667 23.2999C34 23.5166 34.3 23.7499 34.55 23.8166L36.1334 24.2166C37.1 24.4666 37.3834 25.3166 36.7334 26.0833Z" fill="#53389E"/>
</svg>
