<svg width="64" height="64" viewBox="0 0 64 64" fill="none" xmlns="http://www.w3.org/2000/svg">
<rect x="0.5" y="0.5" width="63" height="63" rx="7.5" fill="#FCFCFD"/>
<rect x="0.5" y="0.5" width="63" height="63" rx="7.5" stroke="#EAECF0"/>
<g clip-path="url(#clip0_13178_12317)">
<path d="M38.3335 15.6832C37.6501 14.9998 36.4668 15.4665 36.4668 16.4165V22.2332C36.4668 24.6665 38.5335 26.6832 41.0501 26.6832C42.6335 26.6998 44.8335 26.6998 46.7168 26.6998C47.6668 26.6998 48.1668 25.5832 47.5001 24.9165C45.1001 22.4998 40.8001 18.1498 38.3335 15.6832Z" fill="#53389E"/>
<path d="M46.1665 28.9835H41.3498C37.3998 28.9835 34.1832 25.7668 34.1832 21.8168V17.0002C34.1832 16.0835 33.4332 15.3335 32.5165 15.3335H25.4498C20.3165 15.3335 16.1665 18.6668 16.1665 24.6168V39.3835C16.1665 45.3335 20.3165 48.6668 25.4498 48.6668H38.5498C43.6832 48.6668 47.8332 45.3335 47.8332 39.3835V30.6502C47.8332 29.7335 47.0832 28.9835 46.1665 28.9835ZM31.1665 41.5835H24.4998C23.8165 41.5835 23.2498 41.0168 23.2498 40.3335C23.2498 39.6502 23.8165 39.0835 24.4998 39.0835H31.1665C31.8498 39.0835 32.4165 39.6502 32.4165 40.3335C32.4165 41.0168 31.8498 41.5835 31.1665 41.5835ZM34.4998 34.9168H24.4998C23.8165 34.9168 23.2498 34.3502 23.2498 33.6668C23.2498 32.9835 23.8165 32.4168 24.4998 32.4168H34.4998C35.1832 32.4168 35.7498 32.9835 35.7498 33.6668C35.7498 34.3502 35.1832 34.9168 34.4998 34.9168Z" fill="#53389E"/>
</g>
<defs>
<clipPath id="clip0_13178_12317">
<rect width="40" height="40" fill="white" transform="translate(12 12)"/>
</clipPath>
</defs>
</svg>
