<svg width="64" height="64" viewBox="0 0 64 64" fill="none" xmlns="http://www.w3.org/2000/svg">
<rect width="64" height="64" rx="12" fill="#FFFCF5"/>
<path d="M47.933 29.9L45.683 27.2667C45.2663 26.7667 44.9163 25.8334 44.9163 25.1667V22.3334C44.9163 20.5667 43.4663 19.1167 41.6996 19.1167H38.8663C38.1996 19.1167 37.2496 18.7667 36.7496 18.35L34.1163 16.1C32.9663 15.1167 31.083 15.1167 29.933 16.1L27.2663 18.35C26.7663 18.7667 25.833 19.1167 25.1663 19.1167H22.283C20.5163 19.1167 19.0663 20.5667 19.0663 22.3334V25.1667C19.0663 25.8167 18.733 26.75 18.3163 27.25L16.0663 29.9C15.0996 31.0667 15.0996 32.9334 16.0663 34.0667L18.3163 36.7167C18.733 37.2 19.0663 38.15 19.0663 38.8V41.65C19.0663 43.4167 20.5163 44.8667 22.283 44.8667H25.183C25.833 44.8667 26.783 45.2167 27.283 45.6334L29.9163 47.8834C31.0663 48.8667 32.9496 48.8667 34.0996 47.8834L36.733 45.6334C37.233 45.2167 38.1663 44.8667 38.833 44.8667H41.6663C43.433 44.8667 44.883 43.4167 44.883 41.65V38.8167C44.883 38.15 45.233 37.2167 45.6496 36.7167L47.8996 34.0834C48.9163 32.95 48.9163 31.0667 47.933 29.9ZM30.7496 25.55C30.7496 24.8667 31.3163 24.3 31.9996 24.3C32.683 24.3 33.2496 24.8667 33.2496 25.55V33.6C33.2496 34.2834 32.683 34.85 31.9996 34.85C31.3163 34.85 30.7496 34.2834 30.7496 33.6V25.55ZM31.9996 40.1167C31.083 40.1167 30.333 39.3667 30.333 38.45C30.333 37.5334 31.0663 36.7834 31.9996 36.7834C32.9163 36.7834 33.6663 37.5334 33.6663 38.45C33.6663 39.3667 32.933 40.1167 31.9996 40.1167Z" fill="#DC6803"/>
</svg>
