<svg width="20" height="20" viewBox="0 0 20 20" fill="none" xmlns="http://www.w3.org/2000/svg">
<g clip-path="url(#clip0_9464_525)">
<path d="M1.66667 6.05009C1.66667 3.08342 2.29167 2.0001 4.6 1.74177C5.03334 1.68344 5.50834 1.66675 6.05834 1.66675H13.95C14.4917 1.66675 14.975 1.68344 15.4083 1.74177C17.7167 2.0001 18.3417 3.08342 18.3417 6.05009V11.3168C18.3417 14.2834 17.7167 15.3667 15.4083 15.6251C14.975 15.6834 14.5 15.7001 13.95 15.7001H6.05834C5.51667 15.7001 5.03334 15.6834 4.6 15.6251C2.29167 15.3667 1.66667 14.2834 1.66667 11.3168V9.25006" stroke="white" stroke-width="1.5" stroke-linecap="round" stroke-linejoin="round"/>
<path d="M11.3167 6.93335H14.3833" stroke="white" stroke-width="1.5" stroke-linecap="round" stroke-linejoin="round"/>
<path d="M5.61667 11.7583H5.63333H14.3917" stroke="white" stroke-width="1.5" stroke-linecap="round" stroke-linejoin="round"/>
<path d="M5.83333 18.3333H14.1667" stroke="white" stroke-width="1.5" stroke-linecap="round" stroke-linejoin="round"/>
<path d="M5.99559 6.91667H6.00307" stroke="white" stroke-width="2" stroke-linecap="round" stroke-linejoin="round"/>
<path d="M8.74542 6.91667H8.75291" stroke="white" stroke-width="2" stroke-linecap="round" stroke-linejoin="round"/>
</g>
<defs>
<clipPath id="clip0_9464_525">
<rect width="20" height="20" fill="white"/>
</clipPath>
</defs>
</svg>
