<svg width="20" height="20" viewBox="0 0 20 20" fill="none" xmlns="http://www.w3.org/2000/svg">
<g clip-path="url(#clip0_9676_22211)">
<path d="M17.5 4.98405C14.725 4.70905 11.9333 4.56738 9.15 4.56738C7.5 4.56738 5.85 4.65072 4.2 4.81738L2.5 4.98405" stroke="#04080B" stroke-width="1.25" stroke-linecap="round" stroke-linejoin="round"/>
<path d="M7.0835 4.14199L7.26683 3.05033C7.40016 2.25866 7.50016 1.66699 8.9085 1.66699H11.0918C12.5002 1.66699 12.6085 2.29199 12.7335 3.05866L12.9168 4.14199" stroke="#04080B" stroke-width="1.25" stroke-linecap="round" stroke-linejoin="round"/>
<path d="M12.6753 18.3329H7.32533C5.00033 18.3329 4.92533 17.3162 4.83366 16.0079L4.29199 7.61621" stroke="#04080B" stroke-width="1.25" stroke-linecap="round" stroke-linejoin="round"/>
<path d="M15.7087 7.61621L15.167 16.0079" stroke="#04080B" stroke-width="1.25" stroke-linecap="round" stroke-linejoin="round"/>
<path d="M8.6084 13.75H11.3834" stroke="#04080B" stroke-width="1.25" stroke-linecap="round" stroke-linejoin="round"/>
<path d="M10.6836 10.417H12.0836" stroke="#04080B" stroke-width="1.25" stroke-linecap="round" stroke-linejoin="round"/>
<path d="M7.9165 10.417H8.60817" stroke="#04080B" stroke-width="1.25" stroke-linecap="round" stroke-linejoin="round"/>
</g>
<defs>
<clipPath id="clip0_9676_22211">
<rect width="20" height="20" fill="white"/>
</clipPath>
</defs>
</svg>
