<svg width="20" height="20" viewBox="0 0 20 20" fill="none" xmlns="http://www.w3.org/2000/svg">
<g clip-path="url(#clip0_9464_574)">
<path d="M10 15.1667C11.8409 15.1667 13.3333 13.6743 13.3333 11.8333C13.3333 9.99238 11.8409 8.5 10 8.5C8.15905 8.5 6.66667 9.99238 6.66667 11.8333C6.66667 13.6743 8.15905 15.1667 10 15.1667Z" stroke="#D6BBFB" stroke-width="1.5" stroke-miterlimit="10" stroke-linecap="round" stroke-linejoin="round"/>
<path d="M8.7 11.9168L9.24167 12.4584C9.4 12.6168 9.65833 12.6168 9.81667 12.4668L11.3 11.1001" stroke="#D6BBFB" stroke-width="1.5" stroke-linecap="round" stroke-linejoin="round"/>
<path d="M17.8083 11.6667L18.0917 8.69167C18.3083 6.65833 17.725 5 14.1667 5H5.83333C2.275 5 1.69167 6.65833 1.91667 8.69167L2.54167 15.3583C2.71667 16.9917 3.31667 18.3333 6.66667 18.3333H13.3333C16.6833 18.3333 17.2833 16.9917 17.4583 15.3583" stroke="#D6BBFB" stroke-width="1.5" stroke-miterlimit="10" stroke-linecap="round" stroke-linejoin="round"/>
<path d="M6.66667 5.00008V4.33341C6.66667 2.85841 6.66667 1.66675 9.33333 1.66675H10.6667C13.3333 1.66675 13.3333 2.85841 13.3333 4.33341V5.00008" stroke="#D6BBFB" stroke-width="1.5" stroke-miterlimit="10" stroke-linecap="round" stroke-linejoin="round"/>
<path d="M18.0417 9.16675C16.6 10.2167 15 10.9501 13.3417 11.3667" stroke="#D6BBFB" stroke-width="1.5" stroke-miterlimit="10" stroke-linecap="round" stroke-linejoin="round"/>
<path d="M2.18333 9.3916C3.575 10.3416 5.09167 11.0166 6.66667 11.3999" stroke="#D6BBFB" stroke-width="1.5" stroke-miterlimit="10" stroke-linecap="round" stroke-linejoin="round"/>
</g>
<defs>
<clipPath id="clip0_9464_574">
<rect width="20" height="20" fill="white"/>
</clipPath>
</defs>
</svg>
