<svg width="20" height="20" viewBox="0 0 20 20" fill="none" xmlns="http://www.w3.org/2000/svg">
<path d="M6.80004 5.54199H13.1917C13.725 5.54199 14.1584 5.97533 14.1584 6.50866V7.57533C14.1584 7.96699 13.9167 8.45033 13.675 8.69199L11.5917 10.5337C11.3 10.7753 11.1084 11.2587 11.1084 11.6503V13.7337C11.1084 14.0253 10.9167 14.4087 10.675 14.5587L10 14.9837C9.36671 15.3753 8.50004 14.9337 8.50004 14.1587V11.592C8.50004 11.2503 8.30837 10.817 8.10837 10.5753L6.26671 8.63366C6.02504 8.40033 5.83337 7.95866 5.83337 7.66699V6.55866C5.83337 5.97533 6.26671 5.54199 6.80004 5.54199Z" stroke="#04080B" stroke-width="1.25" stroke-miterlimit="10" stroke-linecap="round" stroke-linejoin="round"/>
<path d="M1.66663 10.767V12.5003C1.66663 16.667 3.33329 18.3337 7.49996 18.3337H12.5C16.6666 18.3337 18.3333 16.667 18.3333 12.5003V7.50033C18.3333 3.33366 16.6666 1.66699 12.5 1.66699H7.49996C3.33329 1.66699 1.66663 3.33366 1.66663 7.50033" stroke="#04080B" stroke-width="1.25" stroke-linecap="round" stroke-linejoin="round"/>
</svg>
