<svg width="40" height="40" viewBox="0 0 40 40" fill="none" xmlns="http://www.w3.org/2000/svg">
<g style="mix-blend-mode:multiply">
<rect width="40" height="40" rx="8" fill="#FCFCFD"/>
<path d="M10.7702 26.25C10.8902 28.31 12.0002 30 14.7602 30H25.2402C28.0002 30 29.1002 28.31 29.2302 26.25L29.7502 17.99C29.8902 15.83 28.1702 14 26.0002 14C25.3902 14 24.8302 13.65 24.5502 13.11L23.8302 11.66C23.3702 10.75 22.1702 10 21.1502 10H18.8602C17.8302 10 16.6302 10.75 16.1702 11.66L15.4502 13.11C15.1702 13.65 14.6102 14 14.0002 14C11.8302 14 10.1102 15.83 10.2502 17.99L10.5102 22.06" stroke="#0088FF" stroke-width="1.5" stroke-linecap="round" stroke-linejoin="round"/>
<path d="M18.5002 16H21.5002" stroke="#0088FF" stroke-width="1.5" stroke-linecap="round" stroke-linejoin="round"/>
<path d="M20.0002 26C21.7902 26 23.2502 24.54 23.2502 22.75C23.2502 20.96 21.7902 19.5 20.0002 19.5C18.2102 19.5 16.7502 20.96 16.7502 22.75C16.7502 24.54 18.2102 26 20.0002 26Z" stroke="#0088FF" stroke-width="1.5" stroke-linecap="round" stroke-linejoin="round"/>
</g>
</svg>
