<svg width="20" height="21" viewBox="0 0 20 21" fill="none" xmlns="http://www.w3.org/2000/svg">
<path d="M4.11664 16.4L15.9 4.6167" stroke="#04080B" stroke-width="1.25" stroke-linecap="round" stroke-linejoin="round"/>
<path d="M1.66669 11.3501V12.9167C1.66669 13.4834 2.00002 14.2834 2.40002 14.6834L5.81668 18.1001C6.21668 18.5001 7.01669 18.8334 7.58336 18.8334H12.4167C12.9833 18.8334 13.7834 18.5001 14.1834 18.1001L17.6 14.6834C18 14.2834 18.3334 13.4834 18.3334 12.9167V8.08342C18.3334 7.51675 18 6.71676 17.6 6.31676L14.1834 2.90009C13.7834 2.50009 12.9833 2.16675 12.4167 2.16675H7.58336C7.01669 2.16675 6.21668 2.50009 5.81668 2.90009L2.40002 6.31676C2.00002 6.71676 1.66669 7.51675 1.66669 8.08342" stroke="#04080B" stroke-width="1.25" stroke-linecap="round" stroke-linejoin="round"/>
</svg>
