<svg width="20" height="21" viewBox="0 0 20 21" fill="none" xmlns="http://www.w3.org/2000/svg">
<path d="M1.66666 6.55009C1.66666 3.58342 2.29166 2.5001 4.59999 2.24177C5.03333 2.18344 5.50833 2.16675 6.05833 2.16675H13.95C14.4917 2.16675 14.975 2.18344 15.4083 2.24177C17.7167 2.5001 18.3417 3.58342 18.3417 6.55009V11.8168C18.3417 14.7834 17.7167 15.8667 15.4083 16.1251C14.975 16.1834 14.5 16.2001 13.95 16.2001H6.05833C5.51666 16.2001 5.03333 16.1834 4.59999 16.1251C2.29166 15.8667 1.66666 14.7834 1.66666 11.8168V9.75006" stroke="#04080B" stroke-width="1.25" stroke-linecap="round" stroke-linejoin="round"/>
<path d="M11.3167 7.43335H14.3833" stroke="#04080B" stroke-width="1.25" stroke-linecap="round" stroke-linejoin="round"/>
<path d="M5.61667 12.2583H5.63333H14.3917" stroke="#04080B" stroke-width="1.25" stroke-linecap="round" stroke-linejoin="round"/>
<path d="M5.83334 18.8333H14.1667" stroke="#04080B" stroke-width="1.25" stroke-linecap="round" stroke-linejoin="round"/>
<path d="M5.99559 7.41667H6.00307" stroke="#04080B" stroke-width="1.66667" stroke-linecap="round" stroke-linejoin="round"/>
<path d="M8.74543 7.41667H8.75292" stroke="#04080B" stroke-width="1.66667" stroke-linecap="round" stroke-linejoin="round"/>
</svg>
