<svg width="20" height="20" viewBox="0 0 20 20" fill="none" xmlns="http://www.w3.org/2000/svg">
<g clip-path="url(#clip0_9464_545)">
<path d="M5 5.20825V6.87492" stroke="#D6BBFB" stroke-width="1.5" stroke-linecap="round" stroke-linejoin="round"/>
<path d="M18.3333 10.0001V7.50008C18.3333 3.33341 16.6667 1.66675 12.5 1.66675H7.5C3.33333 1.66675 1.66667 3.33341 1.66667 7.50008V12.5001C1.66667 16.6667 3.33333 18.3334 7.5 18.3334H10" stroke="#D6BBFB" stroke-width="1.5" stroke-linecap="round" stroke-linejoin="round"/>
<path d="M8.33333 5.20825V6.87492" stroke="#D6BBFB" stroke-width="1.5" stroke-linecap="round" stroke-linejoin="round"/>
<path d="M5 13.3333V14.9999" stroke="#D6BBFB" stroke-width="1.5" stroke-linecap="round" stroke-linejoin="round"/>
<path d="M8.33333 13.3333V14.9999" stroke="#D6BBFB" stroke-width="1.5" stroke-linecap="round" stroke-linejoin="round"/>
<path d="M11.6667 6.04175H15" stroke="#D6BBFB" stroke-width="1.5" stroke-linecap="round" stroke-linejoin="round"/>
<path d="M1.66667 10H15" stroke="#D6BBFB" stroke-width="1.5" stroke-linecap="round" stroke-linejoin="round"/>
<path d="M17.9667 16.9416C17.5 17.7499 16.625 18.2916 15.625 18.2916C14.1333 18.2916 13.2167 16.7916 13.2167 16.7916M13.275 14.2416C13.7417 13.4249 14.6167 12.8833 15.625 12.8833C17.4333 12.8833 18.3333 14.3832 18.3333 14.3832M18.3333 12.7083V14.3749H16.6667M14.8833 16.7833H13.2167V18.3333" stroke="#D6BBFB" stroke-width="1.5" stroke-linecap="round" stroke-linejoin="round"/>
</g>
<defs>
<clipPath id="clip0_9464_545">
<rect width="20" height="20" fill="white"/>
</clipPath>
</defs>
</svg>
