<svg width="20" height="20" viewBox="0 0 20 20" fill="none" xmlns="http://www.w3.org/2000/svg">
<path d="M18.3334 5.4165H13.3334" stroke="#6941C6" stroke-width="1.25" stroke-miterlimit="10" stroke-linecap="round" stroke-linejoin="round"/>
<path d="M4.99996 5.4165H1.66663" stroke="#6941C6" stroke-width="1.25" stroke-miterlimit="10" stroke-linecap="round" stroke-linejoin="round"/>
<path d="M11.25 5.41667C11.25 7.025 9.94163 8.33333 8.33329 8.33333C6.72496 8.33333 5.41663 7.025 5.41663 5.41667C5.41663 3.80833 6.72496 2.5 8.33329 2.5C8.61663 2.5 8.89163 2.54167 9.14996 2.61667" stroke="#6941C6" stroke-width="1.25" stroke-miterlimit="10" stroke-linecap="round" stroke-linejoin="round"/>
<path d="M18.3333 14.5835H15" stroke="#6941C6" stroke-width="1.25" stroke-miterlimit="10" stroke-linecap="round" stroke-linejoin="round"/>
<path d="M6.66663 14.5835H1.66663" stroke="#6941C6" stroke-width="1.25" stroke-miterlimit="10" stroke-linecap="round" stroke-linejoin="round"/>
<path d="M11.6667 17.4998C13.2775 17.4998 14.5833 16.194 14.5833 14.5832C14.5833 12.9723 13.2775 11.6665 11.6667 11.6665C10.0558 11.6665 8.75 12.9723 8.75 14.5832C8.75 16.194 10.0558 17.4998 11.6667 17.4998Z" stroke="#6941C6" stroke-width="1.25" stroke-miterlimit="10" stroke-linecap="round" stroke-linejoin="round"/>
</svg>
