<svg width="20" height="21" viewBox="0 0 20 21" fill="none" xmlns="http://www.w3.org/2000/svg">
<path d="M18.3334 5.91675H13.3334" stroke="#04080B" stroke-width="1.25" stroke-miterlimit="10" stroke-linecap="round" stroke-linejoin="round"/>
<path d="M4.99996 5.91675H1.66663" stroke="#04080B" stroke-width="1.25" stroke-miterlimit="10" stroke-linecap="round" stroke-linejoin="round"/>
<path d="M11.25 5.91667C11.25 7.525 9.94163 8.83333 8.33329 8.83333C6.72496 8.83333 5.41663 7.525 5.41663 5.91667C5.41663 4.30833 6.72496 3 8.33329 3C8.61663 3 8.89163 3.04167 9.14996 3.11667" stroke="#04080B" stroke-width="1.25" stroke-miterlimit="10" stroke-linecap="round" stroke-linejoin="round"/>
<path d="M18.3333 15.0833H15" stroke="#04080B" stroke-width="1.25" stroke-miterlimit="10" stroke-linecap="round" stroke-linejoin="round"/>
<path d="M6.66663 15.0833H1.66663" stroke="#04080B" stroke-width="1.25" stroke-miterlimit="10" stroke-linecap="round" stroke-linejoin="round"/>
<path d="M11.6667 18.0001C13.2775 18.0001 14.5833 16.6942 14.5833 15.0834C14.5833 13.4726 13.2775 12.1667 11.6667 12.1667C10.0558 12.1667 8.75 13.4726 8.75 15.0834C8.75 16.6942 10.0558 18.0001 11.6667 18.0001Z" stroke="#04080B" stroke-width="1.25" stroke-miterlimit="10" stroke-linecap="round" stroke-linejoin="round"/>
</svg>
