<svg width="40" height="41" viewBox="0 0 40 41" fill="none" xmlns="http://www.w3.org/2000/svg">
<rect y="0.5" width="40" height="40" rx="4" fill="#FCFCFD"/>
<path d="M27.9667 19.4501L26.8417 18.1335C26.6334 17.8835 26.4584 17.4168 26.4584 17.0835V15.6668C26.4584 14.7835 25.7334 14.0585 24.8501 14.0585H23.4334C23.1001 14.0585 22.6251 13.8835 22.3751 13.6751L21.0584 12.5501C20.4834 12.0585 19.5417 12.0585 18.9667 12.5501L17.6334 13.6751C17.3834 13.8835 16.9167 14.0585 16.5834 14.0585H15.1417C14.2584 14.0585 13.5334 14.7835 13.5334 15.6668V17.0835C13.5334 17.4085 13.3667 17.8751 13.1584 18.1251L12.0334 19.4501C11.5501 20.0335 11.5501 20.9668 12.0334 21.5335L13.1584 22.8585C13.3667 23.1001 13.5334 23.5751 13.5334 23.9001V25.3251C13.5334 26.2085 14.2584 26.9335 15.1417 26.9335H16.5917C16.9167 26.9335 17.3917 27.1085 17.6417 27.3168L18.9584 28.4418C19.5334 28.9335 20.4751 28.9335 21.0501 28.4418L22.3667 27.3168C22.6167 27.1085 23.0834 26.9335 23.4167 26.9335H24.8334C25.7167 26.9335 26.4417 26.2085 26.4417 25.3251V23.9085C26.4417 23.5751 26.6167 23.1085 26.8251 22.8585L27.9501 21.5418C28.4584 20.9751 28.4584 20.0335 27.9667 19.4501ZM19.3751 17.2751C19.3751 16.9335 19.6584 16.6501 20.0001 16.6501C20.3417 16.6501 20.6251 16.9335 20.6251 17.2751V21.3001C20.6251 21.6418 20.3417 21.9251 20.0001 21.9251C19.6584 21.9251 19.3751 21.6418 19.3751 21.3001V17.2751ZM20.0001 24.5585C19.5417 24.5585 19.1667 24.1835 19.1667 23.7251C19.1667 23.2668 19.5334 22.8918 20.0001 22.8918C20.4584 22.8918 20.8334 23.2668 20.8334 23.7251C20.8334 24.1835 20.4667 24.5585 20.0001 24.5585Z" fill="#475467"/>
</svg>
