<svg width="20" height="20" viewBox="0 0 20 20" fill="none" xmlns="http://www.w3.org/2000/svg">
<path d="M2.91667 9.16675V15.2501C2.91667 17.4667 4.13334 17.9917 5.60834 16.4084L5.61666 16.4001C6.29999 15.6751 7.34166 15.7334 7.93332 16.5251L8.775 17.6501" stroke="#D6BBFB" stroke-width="1.5" stroke-linecap="round" stroke-linejoin="round"/>
<path d="M17.0833 9.41674V5.86676C17.0833 2.50842 16.3 1.66675 13.15 1.66675H6.85C3.7 1.66675 2.91667 2.50842 2.91667 5.86676" stroke="#D6BBFB" stroke-width="1.5" stroke-linecap="round" stroke-linejoin="round"/>
<path d="M15.1667 17.8333C16.6394 17.8333 17.8333 16.6394 17.8333 15.1667C17.8333 13.6939 16.6394 12.5 15.1667 12.5C13.6939 12.5 12.5 13.6939 12.5 15.1667C12.5 16.6394 13.6939 17.8333 15.1667 17.8333Z" stroke="#D6BBFB" stroke-width="1.5" stroke-linecap="round" stroke-linejoin="round"/>
<path d="M18.3333 18.3333L17.5 17.5" stroke="#D6BBFB" stroke-width="1.5" stroke-linecap="round" stroke-linejoin="round"/>
<path d="M6.66667 5.83325H13.3333" stroke="#D6BBFB" stroke-width="1.5" stroke-linecap="round" stroke-linejoin="round"/>
<path d="M7.5 9.16675H12.5" stroke="#D6BBFB" stroke-width="1.5" stroke-linecap="round" stroke-linejoin="round"/>
</svg>
