<svg width="64" height="64" viewBox="0 0 64 64" fill="none" xmlns="http://www.w3.org/2000/svg">
<rect width="64" height="64" rx="12" fill="#F6FEF9"/>
<path d="M47.933 29.8999L45.6663 27.2666C45.233 26.7666 44.883 25.8333 44.883 25.1666V22.3333C44.883 20.5666 43.433 19.1166 41.6663 19.1166H38.833C38.183 19.1166 37.233 18.7666 36.733 18.3333L34.0996 16.0666C32.9496 15.0833 31.0663 15.0833 29.8996 16.0666L27.283 18.3499C26.783 18.7666 25.833 19.1166 25.183 19.1166H22.2996C20.533 19.1166 19.083 20.5666 19.083 22.3333V25.1833C19.083 25.8333 18.733 26.7666 18.3163 27.2666L16.0663 29.9166C15.0996 31.0666 15.0996 32.9333 16.0663 34.0833L18.3163 36.7333C18.733 37.2333 19.083 38.1666 19.083 38.8166V41.6666C19.083 43.4333 20.533 44.8833 22.2996 44.8833H25.183C25.833 44.8833 26.783 45.2333 27.283 45.6666L29.9163 47.9333C31.0663 48.9166 32.9496 48.9166 34.1163 47.9333L36.7496 45.6666C37.2496 45.2333 38.183 44.8833 38.8496 44.8833H41.683C43.4496 44.8833 44.8996 43.4333 44.8996 41.6666V38.8333C44.8996 38.1833 45.2496 37.2333 45.683 36.7333L47.9496 34.0999C48.9163 32.9499 48.9163 31.0499 47.933 29.8999ZM38.933 28.8499L30.883 36.8999C30.6496 37.1333 30.333 37.2666 29.9996 37.2666C29.6663 37.2666 29.3496 37.1333 29.1163 36.8999L25.083 32.8666C24.5996 32.3833 24.5996 31.5833 25.083 31.0999C25.5663 30.6166 26.3663 30.6166 26.8496 31.0999L29.9996 34.2499L37.1663 27.0833C37.6496 26.5999 38.4496 26.5999 38.933 27.0833C39.4163 27.5666 39.4163 28.3666 38.933 28.8499Z" fill="#039855"/>
</svg>
