<svg width="20" height="20" viewBox="0 0 20 20" fill="none" xmlns="http://www.w3.org/2000/svg">
<g clip-path="url(#clip0_9676_22196)">
<path d="M7.52493 11.6666C7.19993 11.1916 7.0166 10.6166 7.0166 9.99993C7.0166 8.34993 8.34993 7.0166 9.99993 7.0166C11.6499 7.0166 12.9833 8.34993 12.9833 9.99993C12.9833 11.6499 11.6499 12.9833 9.99993 12.9833" stroke="#04080B" stroke-width="1.25" stroke-linecap="round" stroke-linejoin="round"/>
<path d="M14.6332 4.65006C13.2249 3.65006 11.6415 3.1084 9.99987 3.1084C7.0582 3.1084 4.31654 4.84173 2.4082 7.84173C1.6582 9.01673 1.6582 10.9917 2.4082 12.1667C4.31654 15.1667 7.0582 16.9001 9.99987 16.9001C12.9415 16.9001 15.6832 15.1667 17.5915 12.1667C18.3415 10.9917 18.3415 9.01673 17.5915 7.84173" stroke="#04080B" stroke-width="1.25" stroke-linecap="round" stroke-linejoin="round"/>
</g>
<defs>
<clipPath id="clip0_9676_22196">
<rect width="20" height="20" fill="white"/>
</clipPath>
</defs>
</svg>
