<svg width="64" height="64" viewBox="0 0 64 64" fill="none" xmlns="http://www.w3.org/2000/svg">
<rect width="64" height="64" rx="12" fill="#FFFCF5"/>
<path d="M47.933 29.8998L45.683 27.2665C45.2663 26.7665 44.9163 25.8331 44.9163 25.1665V22.3331C44.9163 20.5665 43.4663 19.1165 41.6996 19.1165H38.8663C38.1996 19.1165 37.2496 18.7665 36.7496 18.3498L34.1163 16.0998C32.9663 15.1165 31.083 15.1165 29.933 16.0998L27.2663 18.3498C26.7663 18.7665 25.833 19.1165 25.1663 19.1165H22.283C20.5163 19.1165 19.0663 20.5665 19.0663 22.3331V25.1665C19.0663 25.8165 18.733 26.7498 18.3163 27.2498L16.0663 29.8998C15.0996 31.0665 15.0996 32.9331 16.0663 34.0665L18.3163 36.7165C18.733 37.1998 19.0663 38.1498 19.0663 38.7998V41.6498C19.0663 43.4165 20.5163 44.8665 22.283 44.8665H25.183C25.833 44.8665 26.783 45.2165 27.283 45.6331L29.9163 47.8831C31.0663 48.8665 32.9496 48.8665 34.0996 47.8831L36.733 45.6331C37.233 45.2165 38.1663 44.8665 38.833 44.8665H41.6663C43.433 44.8665 44.883 43.4165 44.883 41.6498V38.8165C44.883 38.1498 45.233 37.2165 45.6496 36.7165L47.8996 34.0831C48.9163 32.9498 48.9163 31.0665 47.933 29.8998ZM30.7496 25.5498C30.7496 24.8665 31.3163 24.2998 31.9996 24.2998C32.683 24.2998 33.2496 24.8665 33.2496 25.5498V33.5998C33.2496 34.2831 32.683 34.8498 31.9996 34.8498C31.3163 34.8498 30.7496 34.2831 30.7496 33.5998V25.5498ZM31.9996 40.1165C31.083 40.1165 30.333 39.3665 30.333 38.4498C30.333 37.5331 31.0663 36.7831 31.9996 36.7831C32.9163 36.7831 33.6663 37.5331 33.6663 38.4498C33.6663 39.3665 32.933 40.1165 31.9996 40.1165Z" fill="#DC6803"/>
</svg>
