<svg width="40" height="41" viewBox="0 0 40 41" fill="none" xmlns="http://www.w3.org/2000/svg">
<rect y="0.5" width="40" height="40" rx="4" fill="#FCFCFD"/>
<path d="M28.3333 19.4582V18.6916C28.3333 15.6082 27.5666 14.8416 24.4833 14.8416H19.1666V20.4999" stroke="black" stroke-width="1.25" stroke-linecap="round" stroke-linejoin="round"/>
<path d="M19.0917 27.1666H24.4833C27.5667 27.1666 28.3333 26.3999 28.3333 23.3166C27.2667 23.3166 26.4083 22.4499 26.4083 21.3916" stroke="black" stroke-width="1.25" stroke-linecap="round" stroke-linejoin="round"/>
<path d="M19.1668 24.6667V27.1666H16.8584C15.6251 27.1666 14.9001 26.325 14.1001 24.3917L13.9501 24.0166C14.9584 23.6166 15.4501 22.45 15.0251 21.4417C14.6168 20.4333 13.4584 19.95 12.4418 20.3667L12.3001 20.0083C11.1001 17.075 11.5168 16.05 14.4501 14.8417L16.6501 13.9417L19.1668 20.0416V22.1667" stroke="black" stroke-width="1.25" stroke-linecap="round" stroke-linejoin="round"/>
<path d="M16.8083 27.1667H16.6666" stroke="black" stroke-width="1.25" stroke-linecap="round" stroke-linejoin="round"/>
</svg>
